<svg width="237" height="39" viewBox="0 0 237 39" fill="none" xmlns="http://www.w3.org/2000/svg">
<path d="M24.352 13.5279C26.5067 13.5279 28.2133 14.1679 29.472 15.4479C30.752 16.7066 31.392 18.6052 31.392 21.1439V30.9999H26.4V21.9119C26.4 20.5466 26.112 19.5332 25.536 18.8719C24.9813 18.1892 24.1813 17.8479 23.136 17.8479C21.9627 17.8479 21.0347 18.2319 20.352 18.9999C19.6693 19.7466 19.328 20.8666 19.328 22.3599V30.9999H14.336V21.9119C14.336 19.2026 13.248 17.8479 11.072 17.8479C9.91995 17.8479 9.00262 18.2319 8.31995 18.9999C7.63728 19.7466 7.29596 20.8666 7.29596 22.3599V30.9999H2.30396V13.7839H7.07196V15.7679C7.71196 15.0426 8.49063 14.4879 9.40796 14.1039C10.3467 13.7199 11.3707 13.5279 12.48 13.5279C13.696 13.5279 14.7947 13.7732 15.776 14.2639C16.7573 14.7332 17.5467 15.4266 18.144 16.3439C18.848 15.4479 19.7333 14.7546 20.8 14.2639C21.888 13.7732 23.072 13.5279 24.352 13.5279ZM35.8665 13.7839H40.8585V30.9999H35.8665V13.7839ZM38.3625 11.3839C37.4452 11.3839 36.6985 11.1172 36.1225 10.5839C35.5465 10.0506 35.2585 9.38925 35.2585 8.59992C35.2585 7.81059 35.5465 7.14925 36.1225 6.61592C36.6985 6.08259 37.4452 5.81592 38.3625 5.81592C39.2798 5.81592 40.0265 6.07192 40.6025 6.58392C41.1785 7.09592 41.4665 7.73592 41.4665 8.50392C41.4665 9.33592 41.1785 10.0292 40.6025 10.5839C40.0265 11.1172 39.2798 11.3839 38.3625 11.3839ZM55.9555 13.5279C58.0888 13.5279 59.8062 14.1679 61.1075 15.4479C62.4302 16.7279 63.0915 18.6266 63.0915 21.1439V30.9999H58.0995V21.9119C58.0995 20.5466 57.8008 19.5332 57.2035 18.8719C56.6062 18.1892 55.7422 17.8479 54.6115 17.8479C53.3528 17.8479 52.3502 18.2426 51.6035 19.0319C50.8568 19.7999 50.4835 20.9519 50.4835 22.4879V30.9999H45.4915V13.7839H50.2595V15.7999C50.9208 15.0746 51.7422 14.5199 52.7235 14.1359C53.7048 13.7306 54.7822 13.5279 55.9555 13.5279ZM78.0805 13.5279C80.2138 13.5279 81.9312 14.1679 83.2325 15.4479C84.5552 16.7279 85.2165 18.6266 85.2165 21.1439V30.9999H80.2245V21.9119C80.2245 20.5466 79.9258 19.5332 79.3285 18.8719C78.7312 18.1892 77.8672 17.8479 76.7365 17.8479C75.4778 17.8479 74.4752 18.2426 73.7285 19.0319C72.9818 19.7999 72.6085 20.9519 72.6085 22.4879V30.9999H67.6165V7.25592H72.6085V15.5759C73.2698 14.9146 74.0698 14.4132 75.0085 14.0719C75.9472 13.7092 76.9712 13.5279 78.0805 13.5279ZM107.401 13.7839V30.9999H102.633V29.0159C101.396 30.5092 99.6037 31.2559 97.257 31.2559C95.6357 31.2559 94.1637 30.8932 92.841 30.1679C91.5397 29.4426 90.5156 28.4079 89.769 27.0639C89.0223 25.7199 88.649 24.1626 88.649 22.3919C88.649 20.6212 89.0223 19.0639 89.769 17.7199C90.5156 16.3759 91.5397 15.3412 92.841 14.6159C94.1637 13.8906 95.6357 13.5279 97.257 13.5279C99.4543 13.5279 101.172 14.2212 102.409 15.6079V13.7839H107.401ZM98.121 27.1599C99.3797 27.1599 100.425 26.7332 101.257 25.8799C102.089 25.0052 102.505 23.8426 102.505 22.3919C102.505 20.9412 102.089 19.7892 101.257 18.9359C100.425 18.0612 99.3797 17.6239 98.121 17.6239C96.841 17.6239 95.785 18.0612 94.953 18.9359C94.121 19.7892 93.705 20.9412 93.705 22.3919C93.705 23.8426 94.121 25.0052 94.953 25.8799C95.785 26.7332 96.841 27.1599 98.121 27.1599Z" fill="#E9E9E9"/>
<path d="M118.199 31.2559C116.257 31.2559 114.743 30.7439 113.655 29.7199C112.567 28.6746 112.023 27.2026 112.023 25.3039V7.25592H117.015V25.0159C117.015 25.7412 117.196 26.3066 117.559 26.7119C117.943 27.0959 118.476 27.2879 119.159 27.2879C119.415 27.2879 119.671 27.2559 119.927 27.1919C120.204 27.1279 120.417 27.0532 120.567 26.9679L120.791 30.8399C119.959 31.1172 119.095 31.2559 118.199 31.2559ZM128.264 31.1979C126.988 31.1979 125.836 30.9339 124.81 30.4059C123.783 29.8779 122.976 29.1446 122.389 28.2059C121.818 27.2672 121.532 26.2039 121.532 25.0159C121.532 23.8426 121.818 22.7866 122.389 21.8479C122.976 20.9092 123.776 20.1832 124.788 19.6699C125.814 19.1419 126.973 18.8779 128.264 18.8779C129.554 18.8779 130.713 19.1419 131.74 19.6699C132.766 20.1832 133.566 20.9092 134.138 21.8479C134.71 22.7719 134.996 23.8279 134.996 25.0159C134.996 26.2039 134.71 27.2672 134.138 28.2059C133.566 29.1446 132.766 29.8779 131.74 30.4059C130.713 30.9339 129.554 31.1979 128.264 31.1979ZM128.264 27.8759C128.997 27.8759 129.598 27.6266 130.068 27.1279C130.537 26.6146 130.772 25.9106 130.772 25.0159C130.772 24.1359 130.537 23.4466 130.068 22.9479C129.598 22.4492 128.997 22.1999 128.264 22.1999C127.53 22.1999 126.929 22.4492 126.46 22.9479C125.99 23.4466 125.756 24.1359 125.756 25.0159C125.756 25.9106 125.99 26.6146 126.46 27.1279C126.929 27.6266 127.53 27.8759 128.264 27.8759ZM142.916 31.1979C141.64 31.1979 140.489 30.9339 139.462 30.4059C138.435 29.8779 137.629 29.1446 137.042 28.2059C136.47 27.2672 136.184 26.2039 136.184 25.0159C136.184 23.8426 136.47 22.7866 137.042 21.8479C137.629 20.9092 138.428 20.1832 139.44 19.6699C140.467 19.1419 141.625 18.8779 142.916 18.8779C144.207 18.8779 145.365 19.1419 146.392 19.6699C147.419 20.1832 148.218 20.9092 148.79 21.8479C149.362 22.7719 149.648 23.8279 149.648 25.0159C149.648 26.2039 149.362 27.2672 148.79 28.2059C148.218 29.1446 147.419 29.8779 146.392 30.4059C145.365 30.9339 144.207 31.1979 142.916 31.1979ZM142.916 27.8759C143.649 27.8759 144.251 27.6266 144.72 27.1279C145.189 26.6146 145.424 25.9106 145.424 25.0159C145.424 24.1359 145.189 23.4466 144.72 22.9479C144.251 22.4492 143.649 22.1999 142.916 22.1999C142.183 22.1999 141.581 22.4492 141.112 22.9479C140.643 23.4466 140.408 24.1359 140.408 25.0159C140.408 25.9106 140.643 26.6146 141.112 27.1279C141.581 27.6266 142.183 27.8759 142.916 27.8759ZM151.266 37.4639C149.517 37.4639 148.184 37.1439 147.266 36.5039L148.61 32.8879C149.186 33.2932 149.89 33.4959 150.722 33.4959C151.362 33.4959 151.864 33.2826 152.226 32.8559C152.589 32.4506 152.77 31.8319 152.77 30.9999V13.7839H157.762V30.9679C157.762 32.9732 157.186 34.5519 156.034 35.7039C154.904 36.8772 153.314 37.4639 151.266 37.4639ZM155.266 11.3839C154.349 11.3839 153.602 11.1172 153.026 10.5839C152.45 10.0506 152.162 9.38925 152.162 8.59992C152.162 7.81059 152.45 7.14925 153.026 6.61592C153.602 6.08259 154.349 5.81592 155.266 5.81592C156.184 5.81592 156.93 6.07192 157.506 6.58392C158.082 7.09592 158.37 7.73592 158.37 8.50392C158.37 9.33592 158.082 10.0292 157.506 10.5839C156.93 11.1172 156.184 11.3839 155.266 11.3839ZM162.359 13.7839H167.351V30.9999H162.359V13.7839ZM164.855 11.3839C163.937 11.3839 163.191 11.1172 162.615 10.5839C162.039 10.0506 161.751 9.38925 161.751 8.59992C161.751 7.81059 162.039 7.14925 162.615 6.61592C163.191 6.08259 163.937 5.81592 164.855 5.81592C165.772 5.81592 166.519 6.07192 167.095 6.58392C167.671 7.09592 167.959 7.73592 167.959 8.50392C167.959 9.33592 167.671 10.0292 167.095 10.5839C166.519 11.1172 165.772 11.3839 164.855 11.3839ZM182.448 13.5279C184.581 13.5279 186.298 14.1679 187.6 15.4479C188.922 16.7279 189.584 18.6266 189.584 21.1439V30.9999H184.592V21.9119C184.592 20.5466 184.293 19.5332 183.696 18.8719C183.098 18.1892 182.234 17.8479 181.104 17.8479C179.845 17.8479 178.842 18.2426 178.096 19.0319C177.349 19.7999 176.976 20.9519 176.976 22.4879V30.9999H171.984V13.7839H176.752V15.7999C177.413 15.0746 178.234 14.5199 179.216 14.1359C180.197 13.7306 181.274 13.5279 182.448 13.5279ZM204.573 13.5279C206.706 13.5279 208.423 14.1679 209.725 15.4479C211.047 16.7279 211.709 18.6266 211.709 21.1439V30.9999H206.717V21.9119C206.717 20.5466 206.418 19.5332 205.821 18.8719C205.223 18.1892 204.359 17.8479 203.229 17.8479C201.97 17.8479 200.967 18.2426 200.221 19.0319C199.474 19.7999 199.101 20.9519 199.101 22.4879V30.9999H194.109V7.25592H199.101V15.5759C199.762 14.9146 200.562 14.4132 201.501 14.0719C202.439 13.7092 203.463 13.5279 204.573 13.5279ZM233.893 13.7839V30.9999H229.125V29.0159C227.888 30.5092 226.096 31.2559 223.749 31.2559C222.128 31.2559 220.656 30.8932 219.333 30.1679C218.032 29.4426 217.008 28.4079 216.261 27.0639C215.515 25.7199 215.141 24.1626 215.141 22.3919C215.141 20.6212 215.515 19.0639 216.261 17.7199C217.008 16.3759 218.032 15.3412 219.333 14.6159C220.656 13.8906 222.128 13.5279 223.749 13.5279C225.947 13.5279 227.664 14.2212 228.901 15.6079V13.7839H233.893ZM224.613 27.1599C225.872 27.1599 226.917 26.7332 227.749 25.8799C228.581 25.0052 228.997 23.8426 228.997 22.3919C228.997 20.9412 228.581 19.7892 227.749 18.9359C226.917 18.0612 225.872 17.6239 224.613 17.6239C223.333 17.6239 222.277 18.0612 221.445 18.9359C220.613 19.7892 220.197 20.9412 220.197 22.3919C220.197 23.8426 220.613 25.0052 221.445 25.8799C222.277 26.7332 223.333 27.1599 224.613 27.1599Z" fill="#8132AE"/>
<path d="M127.286 5C127.786 5 128.216 5.34368 128.343 5.82576L128.369 5.94905L129 8.46157H144.904C145.561 8.46157 146.059 9.04243 145.994 9.68932L145.974 9.81943L143.946 15.3023C143.844 15.7708 143.304 15.9458 142.846 16H142.615H127.839C127.339 16 126.759 15.4891 126.632 15.007L126.607 14.8837L125.5 8H123V5H127.286ZM130 12.6943L130.5 16H139.841L141 12.6943H130Z" fill="#8132AE"/>
</svg>
