<svg width="237" height="39" viewBox="0 0 237 39" fill="none" xmlns="http://www.w3.org/2000/svg">
<path d="M24.352 13.528C26.5067 13.528 28.2133 14.168 29.472 15.448C30.752 16.7067 31.392 18.6053 31.392 21.144V31H26.4V21.912C26.4 20.5467 26.112 19.5333 25.536 18.872C24.9813 18.1893 24.1813 17.848 23.136 17.848C21.9627 17.848 21.0347 18.232 20.352 19C19.6693 19.7467 19.328 20.8667 19.328 22.36V31H14.336V21.912C14.336 19.2027 13.248 17.848 11.072 17.848C9.92 17.848 9.00267 18.232 8.32 19C7.63733 19.7467 7.296 20.8667 7.296 22.36V31H2.304V13.784H7.072V15.768C7.712 15.0427 8.49067 14.488 9.408 14.104C10.3467 13.72 11.3707 13.528 12.48 13.528C13.696 13.528 14.7947 13.7733 15.776 14.264C16.7573 14.7333 17.5467 15.4267 18.144 16.344C18.848 15.448 19.7333 14.7547 20.8 14.264C21.888 13.7733 23.072 13.528 24.352 13.528ZM35.8665 13.784H40.8585V31H35.8665V13.784ZM38.3625 11.384C37.4452 11.384 36.6985 11.1173 36.1225 10.584C35.5465 10.0507 35.2585 9.38933 35.2585 8.6C35.2585 7.81067 35.5465 7.14933 36.1225 6.616C36.6985 6.08267 37.4452 5.816 38.3625 5.816C39.2798 5.816 40.0265 6.072 40.6025 6.584C41.1785 7.096 41.4665 7.736 41.4665 8.504C41.4665 9.336 41.1785 10.0293 40.6025 10.584C40.0265 11.1173 39.2798 11.384 38.3625 11.384ZM55.9555 13.528C58.0888 13.528 59.8062 14.168 61.1075 15.448C62.4302 16.728 63.0915 18.6267 63.0915 21.144V31H58.0995V21.912C58.0995 20.5467 57.8008 19.5333 57.2035 18.872C56.6062 18.1893 55.7422 17.848 54.6115 17.848C53.3528 17.848 52.3502 18.2427 51.6035 19.032C50.8568 19.8 50.4835 20.952 50.4835 22.488V31H45.4915V13.784H50.2595V15.8C50.9208 15.0747 51.7422 14.52 52.7235 14.136C53.7048 13.7307 54.7822 13.528 55.9555 13.528ZM78.0805 13.528C80.2138 13.528 81.9312 14.168 83.2325 15.448C84.5552 16.728 85.2165 18.6267 85.2165 21.144V31H80.2245V21.912C80.2245 20.5467 79.9258 19.5333 79.3285 18.872C78.7312 18.1893 77.8672 17.848 76.7365 17.848C75.4778 17.848 74.4752 18.2427 73.7285 19.032C72.9818 19.8 72.6085 20.952 72.6085 22.488V31H67.6165V7.256H72.6085V15.576C73.2698 14.9147 74.0698 14.4133 75.0085 14.072C75.9472 13.7093 76.9712 13.528 78.0805 13.528ZM107.401 13.784V31H102.633V29.016C101.396 30.5093 99.6037 31.256 97.257 31.256C95.6357 31.256 94.1637 30.8933 92.841 30.168C91.5397 29.4427 90.5157 28.408 89.769 27.064C89.0223 25.72 88.649 24.1627 88.649 22.392C88.649 20.6213 89.0223 19.064 89.769 17.72C90.5157 16.376 91.5397 15.3413 92.841 14.616C94.1637 13.8907 95.6357 13.528 97.257 13.528C99.4543 13.528 101.172 14.2213 102.409 15.608V13.784H107.401ZM98.121 27.16C99.3797 27.16 100.425 26.7333 101.257 25.88C102.089 25.0053 102.505 23.8427 102.505 22.392C102.505 20.9413 102.089 19.7893 101.257 18.936C100.425 18.0613 99.3797 17.624 98.121 17.624C96.841 17.624 95.785 18.0613 94.953 18.936C94.121 19.7893 93.705 20.9413 93.705 22.392C93.705 23.8427 94.121 25.0053 94.953 25.88C95.785 26.7333 96.841 27.16 98.121 27.16Z" fill="#484848"/>
<path d="M118.199 31.256C116.257 31.256 114.743 30.744 113.655 29.72C112.567 28.6747 112.023 27.2027 112.023 25.304V7.256H117.015V25.016C117.015 25.7413 117.196 26.3067 117.559 26.712C117.943 27.096 118.476 27.288 119.159 27.288C119.415 27.288 119.671 27.256 119.927 27.192C120.204 27.128 120.417 27.0533 120.567 26.968L120.791 30.84C119.959 31.1173 119.095 31.256 118.199 31.256ZM128.264 31.198C126.988 31.198 125.836 30.934 124.81 30.406C123.783 29.878 122.976 29.1447 122.389 28.206C121.818 27.2673 121.532 26.204 121.532 25.016C121.532 23.8427 121.818 22.7867 122.389 21.848C122.976 20.9093 123.776 20.1833 124.788 19.67C125.814 19.142 126.973 18.878 128.264 18.878C129.554 18.878 130.713 19.142 131.74 19.67C132.766 20.1833 133.566 20.9093 134.138 21.848C134.71 22.772 134.996 23.828 134.996 25.016C134.996 26.204 134.71 27.2673 134.138 28.206C133.566 29.1447 132.766 29.878 131.74 30.406C130.713 30.934 129.554 31.198 128.264 31.198ZM128.264 27.876C128.997 27.876 129.598 27.6267 130.068 27.128C130.537 26.6147 130.772 25.9107 130.772 25.016C130.772 24.136 130.537 23.4467 130.068 22.948C129.598 22.4493 128.997 22.2 128.264 22.2C127.53 22.2 126.929 22.4493 126.46 22.948C125.99 23.4467 125.756 24.136 125.756 25.016C125.756 25.9107 125.99 26.6147 126.46 27.128C126.929 27.6267 127.53 27.876 128.264 27.876ZM142.916 31.198C141.64 31.198 140.489 30.934 139.462 30.406C138.435 29.878 137.629 29.1447 137.042 28.206C136.47 27.2673 136.184 26.204 136.184 25.016C136.184 23.8427 136.47 22.7867 137.042 21.848C137.629 20.9093 138.428 20.1833 139.44 19.67C140.467 19.142 141.625 18.878 142.916 18.878C144.207 18.878 145.365 19.142 146.392 19.67C147.419 20.1833 148.218 20.9093 148.79 21.848C149.362 22.772 149.648 23.828 149.648 25.016C149.648 26.204 149.362 27.2673 148.79 28.206C148.218 29.1447 147.419 29.878 146.392 30.406C145.365 30.934 144.207 31.198 142.916 31.198ZM142.916 27.876C143.649 27.876 144.251 27.6267 144.72 27.128C145.189 26.6147 145.424 25.9107 145.424 25.016C145.424 24.136 145.189 23.4467 144.72 22.948C144.251 22.4493 143.649 22.2 142.916 22.2C142.183 22.2 141.581 22.4493 141.112 22.948C140.643 23.4467 140.408 24.136 140.408 25.016C140.408 25.9107 140.643 26.6147 141.112 27.128C141.581 27.6267 142.183 27.876 142.916 27.876ZM151.266 37.464C149.517 37.464 148.184 37.144 147.266 36.504L148.61 32.888C149.186 33.2933 149.89 33.496 150.722 33.496C151.362 33.496 151.864 33.2827 152.226 32.856C152.589 32.4507 152.77 31.832 152.77 31V13.784H157.762V30.968C157.762 32.9733 157.186 34.552 156.034 35.704C154.904 36.8773 153.314 37.464 151.266 37.464ZM155.266 11.384C154.349 11.384 153.602 11.1173 153.026 10.584C152.45 10.0507 152.162 9.38933 152.162 8.6C152.162 7.81067 152.45 7.14933 153.026 6.616C153.602 6.08267 154.349 5.816 155.266 5.816C156.184 5.816 156.93 6.072 157.506 6.584C158.082 7.096 158.37 7.736 158.37 8.504C158.37 9.336 158.082 10.0293 157.506 10.584C156.93 11.1173 156.184 11.384 155.266 11.384ZM162.359 13.784H167.351V31H162.359V13.784ZM164.855 11.384C163.937 11.384 163.191 11.1173 162.615 10.584C162.039 10.0507 161.751 9.38933 161.751 8.6C161.751 7.81067 162.039 7.14933 162.615 6.616C163.191 6.08267 163.937 5.816 164.855 5.816C165.772 5.816 166.519 6.072 167.095 6.584C167.671 7.096 167.959 7.736 167.959 8.504C167.959 9.336 167.671 10.0293 167.095 10.584C166.519 11.1173 165.772 11.384 164.855 11.384ZM182.448 13.528C184.581 13.528 186.298 14.168 187.6 15.448C188.922 16.728 189.584 18.6267 189.584 21.144V31H184.592V21.912C184.592 20.5467 184.293 19.5333 183.696 18.872C183.098 18.1893 182.234 17.848 181.104 17.848C179.845 17.848 178.842 18.2427 178.096 19.032C177.349 19.8 176.976 20.952 176.976 22.488V31H171.984V13.784H176.752V15.8C177.413 15.0747 178.234 14.52 179.216 14.136C180.197 13.7307 181.274 13.528 182.448 13.528ZM204.573 13.528C206.706 13.528 208.423 14.168 209.725 15.448C211.047 16.728 211.709 18.6267 211.709 21.144V31H206.717V21.912C206.717 20.5467 206.418 19.5333 205.821 18.872C205.223 18.1893 204.359 17.848 203.229 17.848C201.97 17.848 200.967 18.2427 200.221 19.032C199.474 19.8 199.101 20.952 199.101 22.488V31H194.109V7.256H199.101V15.576C199.762 14.9147 200.562 14.4133 201.501 14.072C202.439 13.7093 203.463 13.528 204.573 13.528ZM233.893 13.784V31H229.125V29.016C227.888 30.5093 226.096 31.256 223.749 31.256C222.128 31.256 220.656 30.8933 219.333 30.168C218.032 29.4427 217.008 28.408 216.261 27.064C215.515 25.72 215.141 24.1627 215.141 22.392C215.141 20.6213 215.515 19.064 216.261 17.72C217.008 16.376 218.032 15.3413 219.333 14.616C220.656 13.8907 222.128 13.528 223.749 13.528C225.947 13.528 227.664 14.2213 228.901 15.608V13.784H233.893ZM224.613 27.16C225.872 27.16 226.917 26.7333 227.749 25.88C228.581 25.0053 228.997 23.8427 228.997 22.392C228.997 20.9413 228.581 19.7893 227.749 18.936C226.917 18.0613 225.872 17.624 224.613 17.624C223.333 17.624 222.277 18.0613 221.445 18.936C220.613 19.7893 220.197 20.9413 220.197 22.392C220.197 23.8427 220.613 25.0053 221.445 25.88C222.277 26.7333 223.333 27.16 224.613 27.16Z" fill="#530083"/>
<path d="M127.286 5C127.786 5 128.216 5.34368 128.343 5.82576L128.369 5.94905L129 8.46157H144.904C145.561 8.46157 146.059 9.04243 145.994 9.68932L145.974 9.81943L143.946 15.3023C143.844 15.7708 143.304 15.9458 142.846 16H142.615H127.839C127.339 16 126.759 15.4891 126.632 15.007L126.607 14.8837L125.5 8H123V5H127.286ZM130 12.6943L130.5 16H139.841L141 12.6943H130Z" fill="#530083"/>
</svg>
